<svg width="68" height="60" viewBox="0 0 68 60" fill="none" xmlns="http://www.w3.org/2000/svg">
<circle cx="52.9512" cy="54.9385" r="4.92141" fill="black"/>
<circle cx="26.7037" cy="54.9385" r="4.92141" fill="black"/>
<path d="M1.99816 0.00947762C0.893595 0.0104914 -0.00101304 0.906743 8.34465e-07 2.01131C0.00101459 3.11588 0.897267 4.01049 2.00184 4.00948L1.99816 0.00947762ZM12.3272 4C13.4318 3.99899 14.3264 3.10273 14.3254 1.99816C14.3244 0.893595 13.4281 -0.00101304 12.3236 8.34465e-07L12.3272 4ZM14.326 1.61857C14.0892 0.539684 13.0226 -0.142936 11.9437 0.0938922C10.8648 0.33072 10.1822 1.39731 10.419 2.4762L14.326 1.61857ZM18.39 44.683C18.484 45.7836 19.4523 46.5996 20.5529 46.5056C21.6535 46.4117 22.4695 45.4433 22.3756 44.3428L18.39 44.683ZM58.9327 46.5652C60.0373 46.5659 60.9333 45.6711 60.934 44.5665C60.9347 43.462 60.0399 42.5659 58.9353 42.5652L58.9327 46.5652ZM20.3361 42.5403C19.2315 42.5396 18.3355 43.4344 18.3348 44.539C18.3341 45.6436 19.229 46.5396 20.3335 46.5403L20.3361 42.5403ZM61.0568 38.5596C62.1614 38.5597 63.0569 37.6644 63.057 36.5598C63.0571 35.4552 62.1618 34.5597 61.0572 34.5596L61.0568 38.5596ZM65.5924 12.0188C66.697 12.0188 67.5924 11.1234 67.5924 10.0188C67.5924 8.91427 66.697 8.01884 65.5924 8.01884V12.0188ZM67.6116 10.3144C67.797 9.22554 67.0646 8.1925 65.9757 8.00707C64.8869 7.82164 63.8538 8.55405 63.6684 9.64294L67.6116 10.3144ZM59.133 36.2765C58.9475 37.3654 59.6799 38.3984 60.7688 38.5838C61.8577 38.7693 62.8908 38.0369 63.0762 36.948L59.133 36.2765ZM2.00184 4.00948L12.3272 4L12.3236 8.34465e-07L1.99816 0.00947762L2.00184 4.00948ZM10.419 2.4762L12.156 10.3891L16.063 9.53143L14.326 1.61857L10.419 2.4762ZM12.1523 10.372L17.7492 37.0055L21.6637 36.1829L16.0668 9.54936L12.1523 10.372ZM17.7146 36.7701L18.39 44.683L22.3756 44.3428L21.7001 36.4299L17.7146 36.7701ZM58.9353 42.5652L20.3361 42.5403L20.3335 46.5403L58.9327 46.5652L58.9353 42.5652ZM19.6591 38.5559L61.0568 38.5596L61.0572 34.5596L19.6594 34.5559L19.6591 38.5559ZM65.5924 8.01884H14.0623V12.0188H65.5924V8.01884ZM63.6684 9.64294L59.133 36.2765L63.0762 36.948L67.6116 10.3144L63.6684 9.64294ZM16.8608 25.2391H63.373V21.2391H16.8608V25.2391ZM29.0041 10.1273L31.1491 36.7591L35.1362 36.438L32.9912 9.80615L29.0041 10.1273ZM46.9489 9.87353L45.6227 36.5087L49.6178 36.7076L50.9439 10.0724L46.9489 9.87353Z" fill="black"/>
</svg>
