<svg width="65" height="65" viewBox="0 0 65 65" fill="none" xmlns="http://www.w3.org/2000/svg">
<g clip-path="url(#clip0_639_126)">
<path d="M49.0861 3.49848L48.4594 2.09436C48.0388 1.15199 46.9329 0.728565 45.9893 1.14864L36.4701 5.38645C35.9363 5.62395 35.4966 6.03168 35.2198 6.54562L29.6934 16.8052L34.3438 19.3037L39.4432 9.83694L48.1391 5.96546C49.0827 5.54538 49.5067 4.44086 49.0861 3.49848Z" fill="#FF6F7F"/>
<path d="M14.2654 47.3L15.3057 57.9503C15.6897 61.8885 19.0046 64.8919 22.9665 64.8919H42.6262C46.5879 64.8919 49.9028 61.8885 50.287 57.9503L51.1411 49.2063L47.2195 47.3218H37.5299L24.7223 42.2036L14.2654 47.3Z" fill="#FF6F7F"/>
<path d="M13.3222 37.6477L12.3665 27.8597L32.7971 21.6089L53.2277 27.8597L51.7241 43.2498L47.2204 47.3221H37.5308L13.3222 37.6477Z" fill="#FF6F7F"/>
<path d="M17.713 29.1579C17.713 28.1567 17.7568 27.1656 17.8389 26.1851L12.3665 27.8593L13.3223 37.6475L19.3208 40.0447C18.2757 36.4959 17.713 32.8259 17.713 29.1579Z" fill="#FC5C70"/>
<path d="M56.7304 22.9309L55.6853 19.943C54.7245 17.1968 52.1301 15.3574 49.2173 15.3574H16.3757C13.4629 15.3574 10.8684 17.1968 9.90772 19.943L8.86254 22.9309C8.01975 25.3403 9.81039 27.8595 12.3659 27.8595H53.2273C55.7825 27.8595 57.5732 25.3403 56.7304 22.9309Z" fill="#DCDCDC"/>
<path d="M20.7593 44.1357L14.2656 47.3004L15.3059 57.9507C15.6899 61.889 19.005 64.8924 22.9667 64.8924H38.7818C30.7418 60.3727 24.3136 52.7938 20.7593 44.1357Z" fill="#FC5C70"/>
<path d="M51.7243 43.2498L51.1421 49.2065C35.8746 54.736 29.2645 44.352 14.2663 47.3L13.3224 37.6477C29.8719 31.6541 34.4502 49.8697 51.7243 43.2498Z" fill="#DCDCDC"/>
<path d="M18.4434 36.479C16.8622 36.6135 15.1669 36.9801 13.3224 37.6481L14.2663 47.3005C17.1027 46.7429 19.6388 46.6628 21.9905 46.8611C20.3599 43.5594 19.1523 40.0587 18.4434 36.479Z" fill="#CECECC"/>
<path d="M20.5202 15.3574H16.3757C13.4629 15.3574 10.8684 17.1968 9.90772 19.943L8.86254 22.9309C8.01975 25.3403 9.81039 27.8595 12.3658 27.8595H17.7387C17.8992 23.4459 18.8729 19.2334 20.5202 15.3574Z" fill="#CECECC"/>
</g>
<defs>
<clipPath id="clip0_639_126">
<rect width="63.9882" height="63.9053" fill="white" transform="translate(0.802307 0.986816)"/>
</clipPath>
</defs>
</svg>
