<svg width="65" height="65" viewBox="0 0 65 65" fill="none" xmlns="http://www.w3.org/2000/svg">
<g clip-path="url(#clip0_639_77)">
<path d="M22.8092 5.89941C22.8092 5.89941 16.5686 16.1121 10.4241 29.5095L9.18088 39.3315L3.76969 45.8901C2.39182 49.8613 1.19253 53.8678 0.298111 57.7754C-0.55485 61.5026 2.77833 64.8314 6.51037 63.9796C12.2169 62.676 18.1334 60.7293 23.8429 58.5154L29.9366 52.3167L39.9551 51.4391C50.7554 46.1896 58.4536 41.4976 58.4536 41.4976L22.8092 5.89941Z" fill="#F9ED80"/>
<path d="M32.7671 30.4555C37.6546 30.4555 41.6166 26.4985 41.6166 21.6174C41.6166 16.7362 37.6546 12.7793 32.7671 12.7793C27.8796 12.7793 23.9175 16.7362 23.9175 21.6174C23.9175 26.4985 27.8796 30.4555 32.7671 30.4555Z" fill="#FF6F7F"/>
<path d="M64.0718 36.4418C62.8461 28.8195 58.3983 20.3439 51.1943 13.1491C43.9902 5.95424 35.5037 1.51237 27.8714 0.288266C25.2794 -0.12744 22.7016 1.10746 21.4092 3.38954L19.7906 6.24792C18.0294 9.35807 19.2161 13.3252 22.4173 14.9205C27.7127 17.5597 33.0842 21.4061 38.0053 26.3209C42.9265 31.2357 46.7779 36.6001 49.4204 41.8887C51.018 45.0858 54.9901 46.271 58.1043 44.512L60.9664 42.8955C63.2515 41.6049 64.488 39.0305 64.0718 36.4418Z" fill="#FFCA8A"/>
<path d="M24.9011 16.9651C26.4214 15.4466 27.9833 14.0114 29.5782 12.6597L22.8091 5.89941C22.8091 5.89941 16.5686 16.1121 10.424 29.5095L9.18082 39.3315L3.76964 45.8903C2.39177 49.8614 1.19247 53.8679 0.298056 57.7755C-0.453193 61.0579 2.04273 64.0299 5.19811 64.1109C3.55682 49.3581 10.5331 31.3145 24.9011 16.9651Z" fill="#F9D888"/>
<path d="M13.2088 31.3911C12.3841 30.5674 11.4362 29.9394 10.4248 29.5098C8.07472 34.6353 5.73883 40.2266 3.77039 45.8904C6.93503 47.1052 10.657 46.4388 13.209 43.8901C16.6643 40.4393 16.6643 34.8419 13.2088 31.3911Z" fill="#FF6F7F"/>
<path d="M37.7746 47.8606C34.3192 44.4097 28.7147 44.4097 25.2592 47.8606C22.3671 50.749 21.8956 55.1375 23.8429 58.5158C29.5645 56.2979 35.0763 53.8118 39.9551 51.4396C39.5401 50.13 38.8144 48.8989 37.7746 47.8606Z" fill="#FF6F7F"/>
<path d="M39.6493 36.5352H35.7625C34.3825 36.5352 33.2641 37.6521 33.2641 39.0303C33.2641 40.4083 34.3827 41.5253 35.7623 41.5253H39.6491C41.0291 41.5253 42.1475 40.4083 42.1475 39.0302C42.1475 37.6521 41.0289 36.5352 39.6493 36.5352Z" fill="#60D9A7"/>
<path d="M13.3458 51.0005H9.459C8.07907 51.0005 6.96063 52.1175 6.96063 53.4956C6.96063 54.8736 8.0792 55.9906 9.45887 55.9906H13.3457C14.7256 55.9906 15.844 54.8736 15.844 53.4955C15.844 52.1175 14.7256 51.0005 13.3458 51.0005Z" fill="#60D9A7"/>
<path d="M22.5975 30.5947C21.2175 30.5947 20.0988 31.7117 20.0988 33.0897V36.9715C20.0988 38.3497 21.2175 39.4666 22.5976 39.4666C23.9777 39.4666 25.0964 38.3495 25.0964 36.9716V33.0899C25.0964 31.7117 23.9777 30.5946 22.5975 30.5947Z" fill="#60D9A7"/>
<path d="M6.92846 46.4776C8.34882 41.5231 10.5283 36.5064 13.4325 31.6257C13.359 31.5468 13.2858 31.4677 13.209 31.3909C12.3842 30.5672 11.4363 29.9392 10.4249 29.5098C8.07472 34.6353 5.73883 40.2266 3.77039 45.8904C4.7848 46.2798 5.85637 46.4748 6.92846 46.4776Z" fill="#FC5C70"/>
<path d="M22.4174 14.9207C23.3972 15.409 24.3797 15.9392 25.3614 16.5093C30.1115 11.8428 35.2534 7.97619 40.5386 4.9522C36.2899 2.5229 31.9582 0.943778 27.8714 0.288266C25.2794 -0.12744 22.7016 1.10746 21.4092 3.38954L19.7906 6.24792C18.0294 9.35819 19.2162 13.3252 22.4174 14.9207Z" fill="#FFBE73"/>
</g>
<defs>
<clipPath id="clip0_639_77">
<rect width="63.9882" height="63.9053" fill="white" transform="translate(0.163391 0.208496)"/>
</clipPath>
</defs>
</svg>
