<svg width="75" height="93" viewBox="0 0 75 93" fill="none" xmlns="http://www.w3.org/2000/svg">
<path d="M70.4112 40.9464C70.412 40.9222 70.4129 40.8982 70.414 40.874L70.4147 40.8703C70.5624 37.3498 68.837 34.1378 66.2036 33.0299C65.3 32.6504 64.4919 32.0163 63.8301 31.1914C63.1685 30.3684 62.6532 29.3548 62.335 28.2147L62.3331 28.2028C61.4091 24.8839 58.854 22.7603 56.0921 23.0135L56.0825 23.0142C54.1859 23.1877 52.3333 22.2362 51.0626 20.4367C49.5715 18.327 47.3361 17.4452 45.2284 18.0048C44.715 18.1411 44.2101 18.3616 43.7255 18.672L43.7231 18.6744C42.0264 19.7581 40.0305 19.7834 38.3158 18.7423L38.3021 18.7352C35.804 17.2193 32.8186 18.0117 31.008 20.6714L30.9977 20.6848C29.755 22.5109 27.9183 23.5032 26.0205 23.3735L26.0189 23.3722C23.2493 23.1828 20.7233 25.3744 19.853 28.7213C19.5549 29.8697 19.0564 30.8967 18.4078 31.7374C17.7607 32.5779 16.9622 33.2328 16.0668 33.6364L16.0577 33.6407C13.4472 34.8136 11.7761 38.0591 11.9767 41.5699L11.9773 41.5821C12.1161 43.9926 11.3684 46.3473 9.95336 47.9615C8.29439 49.8558 7.60183 52.6969 8.0431 55.3764C8.15053 56.0289 8.32426 56.671 8.56869 57.2872L8.57054 57.2902C8.57914 57.3118 8.58755 57.3334 8.59591 57.3551C9.99556 60.9759 13.1143 62.9725 16.2202 62.148L64.9374 49.2162C68.0435 48.3916 70.2712 44.9758 70.4112 40.9464V40.9464Z" fill="#60D9A7"/>
<path d="M64.0643 63.2947C64.0746 63.2743 64.0849 63.2541 64.0954 63.234L64.0975 63.2312C65.6192 60.2838 65.3981 56.4071 63.558 53.7686C62.9264 52.8638 62.4782 51.8 62.2322 50.6648C61.9855 49.5313 61.941 48.3265 62.1171 47.1384L62.1201 47.1269C62.6347 43.6695 61.2646 40.2033 58.7744 38.6588L58.7658 38.6533C57.056 37.5923 55.8296 35.5874 55.4426 33.2213C54.9877 30.4466 53.4025 28.2576 51.357 27.3954C50.8588 27.1853 50.3346 27.0535 49.7924 27.0122L49.7893 27.0127C47.892 26.8658 46.1549 25.6134 45.0834 23.6191L45.0743 23.6043C43.5129 20.6995 40.6158 19.4782 37.9959 20.6202L37.9817 20.6251C36.1832 21.4094 34.201 21.0941 32.6101 19.7703L32.6093 19.7682C30.2877 17.8363 27.234 18.117 25.1557 20.4531C24.443 21.2549 23.605 21.824 22.7109 22.1363C21.8181 22.4494 20.8678 22.5053 19.9331 22.2824L19.9236 22.2802C17.2002 21.6269 14.4691 23.3641 13.2525 26.5255L13.2481 26.5364C12.4138 28.7076 10.8344 30.2647 8.97077 30.7559C6.78514 31.3334 5.06087 33.3459 4.38172 35.9427C4.21633 36.575 4.11242 37.2406 4.07993 37.9291L4.08033 37.9329C4.07923 37.957 4.07797 37.981 4.07659 38.0051C3.85405 42.027 5.76224 45.7433 8.77624 47.0139L56.0531 66.9449C59.0674 68.2156 62.3476 66.6867 64.0643 63.2947V63.2947Z" fill="#60C8A7"/>
<path d="M70.3281 52.4251C70.3334 52.4019 70.3389 52.3788 70.3445 52.3558L70.346 52.3524C71.1601 48.9832 70.0963 45.3385 67.7497 43.456C66.9445 42.8106 66.2803 41.9476 65.7948 40.9446C65.309 39.9433 65.0017 38.8021 64.9099 37.5987L64.9102 37.5866C64.6451 34.0841 62.5681 31.2404 59.8374 30.6385L59.828 30.6363C57.9529 30.2226 56.3348 28.7313 55.4435 26.596C54.3973 24.0923 52.3942 22.5512 50.2405 22.4472C49.7159 22.4219 49.1836 22.4808 48.6537 22.6331L48.651 22.6347C46.7966 23.1651 44.8533 22.5772 43.3863 21.0413L43.3743 21.0303C41.2369 18.7934 38.1865 18.646 35.9213 20.67L35.9087 20.6798C34.3538 22.0696 32.3809 22.4684 30.5624 21.7603L30.5612 21.7585C27.9073 20.725 25.0364 22.0754 23.5535 25.0545C23.0452 26.0768 22.3654 26.92 21.5753 27.5364C20.7867 28.153 19.8864 28.5431 18.9398 28.6598L18.9302 28.6612C16.1714 28.9978 13.93 31.6327 13.456 35.0994L13.4542 35.1114C13.1297 37.4919 11.9549 39.5462 10.2731 40.6776C8.30097 42.0058 7.08706 44.5488 7.00514 47.2831C6.98518 47.9488 7.03158 48.6249 7.15158 49.2975L7.1528 49.3011C7.15704 49.3246 7.16111 49.3481 7.16508 49.3717C7.83465 53.3129 10.4833 56.2064 13.6569 56.3598L63.4361 58.7662C66.61 58.9196 69.4244 56.2902 70.3281 52.4251Z" fill="#60E6A7"/>
<path d="M69.3763 42.395H9.04989C6.65453 42.395 4.9406 45.326 5.62758 48.2393C6.59072 52.3236 8.22877 57.9993 10.8084 63.4386C13.0685 68.2044 17.1286 71.1216 21.5104 71.1216H56.9158C61.2975 71.1216 65.3577 68.2044 67.6178 63.4386C70.1973 57.9993 71.8355 52.3236 72.7986 48.2393C73.4856 45.326 71.7716 42.395 69.3763 42.395Z" fill="#FF6F7F"/>
<path d="M19.347 42.395H8.90792C6.51255 42.395 4.79861 45.326 5.4856 48.2393C6.44874 52.3236 8.08679 57.9993 10.6664 63.4386C12.9265 68.2044 16.9867 71.1216 21.3685 71.1216H29.7977C24.1405 63.5105 20.3383 53.5171 19.347 42.395Z" fill="#FC5C70"/>
</svg>
