<svg width="65" height="65" viewBox="0 0 65 65" fill="none" xmlns="http://www.w3.org/2000/svg">
<g clip-path="url(#clip0_639_96)">
<path d="M25.9504 19.8239C25.1179 18.0515 24.3818 16.5734 23.8011 15.4431C23.0538 13.9889 23.5858 12.2054 25.006 11.3932L26.681 10.4356C28.1937 9.57071 30.1234 10.1375 30.9237 11.6838C32.596 14.915 35.4186 20.7309 38.2424 28.1886H26.8588L25.9504 19.8239Z" fill="#F9ED80"/>
<path d="M34.6919 23.4971C33.395 17.3278 31.9839 12.4186 31.0908 9.55685C30.6037 7.9965 31.4334 6.33008 32.9719 5.7728L34.7864 5.11562C36.425 4.52208 38.229 5.41033 38.7526 7.07058C40.2885 11.9408 43.1843 22.2163 44.7563 34.7861C44.2462 35.399 43.8858 36.1461 43.738 36.9766C43.6885 37.2552 43.6148 37.5244 43.5199 37.7823H35.7483L34.6919 23.4971Z" fill="#F9D888"/>
<path d="M38.7193 28.7046C40.3381 18.8252 42.5888 10.9163 43.8793 6.82401C44.4029 5.16363 46.2069 4.27551 47.8455 4.86905L49.66 5.52623C51.1985 6.08351 52.0282 7.74993 51.5411 9.31028C50.1885 13.6441 47.648 22.6723 46.1151 33.6648V38.7372L38.7194 43.2314V28.7046H38.7193Z" fill="#F9ED80"/>
<path d="M53.5003 33.0787C54.8625 26.3414 56.4001 20.9748 57.3509 17.9284C57.838 16.3681 57.0083 14.7017 55.4698 14.1444L53.6553 13.4872C52.0167 12.8937 50.2127 13.7819 49.6891 15.4422C48.5243 19.1359 46.577 25.94 45.0183 34.4955L53.5003 33.0787Z" fill="#F9D888"/>
<path d="M60.4748 33.649C61.796 30.191 62.9914 27.4214 63.8327 25.5637C64.5075 24.0738 63.8882 22.3183 62.4286 21.5772L60.708 20.7038C59.1545 19.9152 57.2557 20.5765 56.5329 22.1601C55.4423 24.5495 53.8194 28.3147 52.0786 33.0792L60.4748 33.649Z" fill="#F9ED80"/>
<path d="M13.671 17.5725C13.0362 15.6578 11.747 14.1738 10.209 13.361C9.04329 12.7451 7.61032 13.2189 7.04305 14.4081C6.29463 15.977 6.14709 17.9361 6.78195 19.8508C6.86859 20.1122 6.96786 20.3654 7.07781 20.6101C6.81452 20.5571 6.54531 20.5166 6.27094 20.4903C4.22873 20.2933 2.32093 20.8927 0.949883 22.0025C-0.0244879 22.7911 -0.164824 24.2427 0.640371 25.2031C1.77336 26.5543 3.53104 27.5074 5.57325 27.7045C8.39955 27.9771 10.9687 26.7242 12.2135 24.7044C13.9096 23.0442 14.5637 20.2646 13.671 17.5725Z" fill="#E7886E"/>
<path d="M43.2078 37.3562L43.1834 37.3276C41.8193 35.727 42.3266 33.8748 42.3233 33.7842C42.6111 31.9819 41.6463 30.2122 39.9742 29.4757L39.8026 29.4001C37.7235 28.4842 37.4908 26.4842 37.4524 26.4048C37.0338 24.6693 35.5185 23.4179 33.733 23.3329L33.4646 23.3202C31.2286 23.2139 30.2961 21.4886 30.2392 21.4358C29.2008 19.9339 27.2792 19.3198 25.5607 19.9406L25.2686 20.0461C23.3793 20.7285 21.9081 19.7515 21.882 19.7436C20.1807 18.7791 18.0313 19.1769 16.7889 20.6861L16.6075 20.9065C15.5167 22.2315 14.0751 22.3282 14.0593 22.3335C11.9982 22.6225 10.4981 24.4341 10.6009 26.5102C10.6507 27.5159 10.3204 28.5035 9.67579 29.2777L9.4931 29.497C8.24205 30.9991 8.25441 33.1822 9.52245 34.67L9.54692 34.6987C10.911 36.2993 10.4037 38.1515 10.4071 38.242C10.1192 40.0444 11.084 41.8141 12.7561 42.5506L12.9277 42.6262C15.0069 43.5421 15.2395 45.542 15.2779 45.6216C15.6966 47.3571 17.2118 48.6085 18.9973 48.6935L19.2658 48.7062C21.5019 48.8125 22.4343 50.5378 22.4912 50.5906C23.5295 52.0925 25.4511 52.7066 27.1697 52.0858L27.4618 51.9803C29.3511 51.2979 30.8223 52.2749 30.8484 52.2828C32.5497 53.2473 34.699 52.8495 35.9414 51.3403L36.1229 51.1199C37.2136 49.7949 38.6552 49.6982 38.671 49.6928C40.7322 49.4037 42.2322 47.5922 42.1295 45.5161C42.0797 44.5104 42.4099 43.5228 43.0546 42.7486L43.2373 42.5292C44.488 41.0273 44.4757 38.8441 43.2078 37.3562Z" fill="#E7886E"/>
<path d="M12.9753 38.4075C12.9753 31.3823 15.2901 24.8243 19.2942 19.2661C18.34 19.4105 17.4398 19.8955 16.7887 20.6863L16.6073 20.9067C15.5166 22.2316 14.075 22.3283 14.0591 22.3337C11.998 22.6228 10.4979 24.4343 10.6007 26.5104C10.6504 27.5161 10.3203 28.5037 9.67561 29.2778L9.49291 29.4971C8.24186 30.9992 8.25422 33.1823 9.52227 34.6701L9.54673 34.6988C10.9108 36.2994 10.4036 38.1516 10.4069 38.2421C10.119 40.0445 11.0839 41.8142 12.7559 42.5507L12.9275 42.6263C13.0528 42.6814 13.171 42.7407 13.2833 42.8032C13.0815 41.3622 12.9753 39.8956 12.9753 38.4075Z" fill="#E27858"/>
<path d="M58.4087 32.9316H48.5845C46.2916 32.9316 44.329 34.574 43.9277 36.8286C43.5263 39.0831 41.5637 40.7255 39.2708 40.7255H26.7638C24.4709 40.7255 22.5082 39.0831 22.1069 36.8286C21.7056 34.574 19.743 32.9316 17.4501 32.9316H7.6259C4.68244 32.9316 2.45393 35.5879 2.96905 38.4821L5.30765 51.6205C6.11683 56.1664 10.0741 59.4779 14.6972 59.4779H51.3373C55.9604 59.4779 59.9177 56.1663 60.7268 51.6205L63.0654 38.4821C63.5806 35.5878 61.3521 32.9316 58.4087 32.9316Z" fill="#60D9A7"/>
<path d="M12.9758 38.4069C12.9758 36.5966 13.1315 34.8179 13.4281 33.0786H7.4366C4.49314 33.0786 2.26463 35.7349 2.77975 38.6291L5.11835 51.7675C5.92753 56.3134 9.88476 59.6249 14.5079 59.6249H20.9071C15.9174 53.6557 12.9758 46.3281 12.9758 38.4069Z" fill="#00CD8C"/>
</g>
<defs>
<clipPath id="clip0_639_96">
<rect width="63.9882" height="63.9053" fill="white" transform="translate(0.117004 0.202637)"/>
</clipPath>
</defs>
</svg>
