<svg width="65" height="65" viewBox="0 0 65 65" fill="none" xmlns="http://www.w3.org/2000/svg">
<g clip-path="url(#clip0_639_63)">
<path d="M62.3604 49.7234C62.3604 58.9975 49.2669 62.439 32.2039 62.439C15.141 62.439 2.04724 58.9971 2.04724 49.723V24.2622H62.3608L62.3604 49.7234Z" fill="#6A647F"/>
<path d="M6.12098 35.3357C6.12098 31.5154 6.80863 27.7883 8.07565 24.2622H2.04724V49.7229C2.04724 56.4767 8.99247 60.1368 19.3565 61.6277C11.2297 55.1476 6.12098 45.7692 6.12098 35.3357Z" fill="#5C586F"/>
<path d="M2.04712 24.2624C-0.402584 22.0955 -0.402712 18.2766 2.04699 16.1097L2.10583 14.9488C2.24771 12.1346 4.51575 9.89331 7.33496 9.78158C8.10848 9.75084 8.80875 9.31534 9.17736 8.63552L9.46112 8.11206C10.6759 5.87113 13.2844 4.77124 15.7397 5.46469L16.2282 5.60265C17.0283 5.8287 17.8877 5.58337 18.4475 4.96913L18.8978 4.47499C20.5629 2.64771 23.2511 2.16912 25.4459 3.30913L26.0147 3.60462C26.768 3.99589 27.6798 3.91784 28.3555 3.40428L28.9017 2.98909C30.8527 1.50615 33.5549 1.50628 35.5058 2.98922L36.0516 3.40416C36.7273 3.91771 37.6391 3.99576 38.3924 3.60449L38.9613 3.30901C41.1561 2.169 43.8443 2.64758 45.5094 4.4746L45.9601 4.96913C46.5198 5.58324 47.3792 5.82857 48.1792 5.60265L48.6686 5.46443C51.1238 4.77111 53.7322 5.87101 54.9468 8.11194L55.2308 8.63591C55.5993 9.31572 56.2994 9.75136 57.0728 9.78196C59.892 9.89383 62.1601 12.1353 62.3018 14.9494L62.3603 16.1099C64.81 18.2767 64.8101 22.0956 62.3604 24.2625C62.3604 33.5366 49.2664 36.9784 32.2036 36.9784C15.1407 36.9784 2.04712 33.5365 2.04712 24.2624Z" fill="#DCDCDC"/>
<path d="M32.2036 13.7881C37.1653 13.7881 41.5197 15.1638 43.9773 17.2349C45.3205 18.3642 46.0977 19.7029 46.0977 21.136C46.0977 23.9764 43.0507 26.4403 38.5907 27.6627L32.2036 20.6816V13.7881Z" fill="#FF6F7F"/>
<path d="M25.8165 27.6627C21.3565 26.4403 18.3096 23.9764 18.3096 21.136C18.3096 19.7029 19.0867 18.3641 20.4299 17.2349C22.8875 15.1638 27.242 13.7881 32.2036 13.7881C32.2036 13.7881 35.2409 16.3862 32.2036 20.6816L25.8165 27.6627Z" fill="#60D9A7"/>
<path d="M38.5907 23.8929V27.6627C36.6786 28.1883 34.5062 28.4839 32.2036 28.4839C29.9009 28.4839 27.7285 28.1882 25.8165 27.6627V23.8929C25.8165 21.8985 27.5421 20.3407 29.5267 20.546C30.393 20.635 31.288 20.6816 32.2036 20.6816C33.1191 20.6816 34.0141 20.635 34.8804 20.546C36.865 20.3408 38.5907 21.8986 38.5907 23.8929Z" fill="#FFCA8A"/>
<path d="M26.1961 3.68765C26.1349 3.66258 26.0741 3.6357 26.0147 3.60485L25.4459 3.30936C23.2511 2.16935 20.5629 2.64794 18.8978 4.47522L18.4475 4.96936C17.8877 5.5836 17.0283 5.82893 16.2281 5.60288L15.7397 5.46491C13.2844 4.77147 10.6759 5.87136 9.46111 8.11229L9.17735 8.63575C8.80887 9.31569 8.10873 9.7512 7.33521 9.78193C4.51613 9.8938 2.2477 12.135 2.10582 14.9491L2.04737 16.1098C-0.402336 18.2768 -0.402594 22.0959 2.04711 24.2627C2.04711 27.4486 3.59235 29.9461 6.31281 31.8524C7.59554 20.1133 15.2681 9.6059 26.1961 3.68765Z" fill="#CECECC"/>
</g>
<defs>
<clipPath id="clip0_639_63">
<rect width="63.9882" height="63.9053" fill="white" transform="translate(0.209534 0.205566)"/>
</clipPath>
</defs>
</svg>
